<?xml version="1.0" encoding="UTF-8" standalone="no"?>
<!-- Created with Inkscape (http://www.inkscape.org/) -->

<svg
   xmlns:dc="http://purl.org/dc/elements/1.1/"
   xmlns:cc="http://creativecommons.org/ns#"
   xmlns:rdf="http://www.w3.org/1999/02/22-rdf-syntax-ns#"
   xmlns:svg="http://www.w3.org/2000/svg"
   xmlns="http://www.w3.org/2000/svg"
   xmlns:xlink="http://www.w3.org/1999/xlink"
   xmlns:sodipodi="http://sodipodi.sourceforge.net/DTD/sodipodi-0.dtd"
   xmlns:inkscape="http://www.inkscape.org/namespaces/inkscape"
   id="svg2"
   version="1.1"
   inkscape:version="0.48.5 r10040"
   width="256"
   height="256"
   sodipodi:docname="utox-svg.svg"
   inkscape:export-filename="/home/vova/Downloads/utox-icon/utox-14x14.png"
   inkscape:export-xdpi="4.921875"
   inkscape:export-ydpi="4.921875">
  <metadata
     id="metadata8">
    <rdf:RDF>
      <cc:Work
         rdf:about="">
        <dc:format>image/svg+xml</dc:format>
        <dc:type
           rdf:resource="http://purl.org/dc/dcmitype/StillImage" />
        <dc:title></dc:title>
      </cc:Work>
    </rdf:RDF>
  </metadata>
  <defs
     id="defs6">
    <pattern
       inkscape:collect="always"
       xlink:href="#Strips1_1"
       id="pattern5191"
       patternTransform="matrix(10,0,0,10,20.355931,-79.78535)" />
    <pattern
       inkscape:stockid="Stripes 1:1"
       id="Strips1_1"
       patternTransform="translate(0,0) scale(10,10)"
       height="1"
       width="2"
       patternUnits="userSpaceOnUse"
       inkscape:collect="always">
      <rect
         id="rect4476"
         height="2"
         width="1"
         y="-0.5"
         x="0"
         style="fill:black;stroke:none" />
    </pattern>
  </defs>
  <sodipodi:namedview
     pagecolor="#ffffff"
     bordercolor="#666666"
     borderopacity="1"
     objecttolerance="10"
     gridtolerance="10"
     guidetolerance="10"
     inkscape:pageopacity="0"
     inkscape:pageshadow="2"
     inkscape:window-width="1280"
     inkscape:window-height="749"
     id="namedview4"
     showgrid="true"
     inkscape:zoom="4.5859375"
     inkscape:cx="128"
     inkscape:cy="-30.684879"
     inkscape:window-x="0"
     inkscape:window-y="29"
     inkscape:window-maximized="1"
     inkscape:current-layer="svg2"
     showguides="true"
     inkscape:guide-bbox="true">
    <inkscape:grid
       type="xygrid"
       id="grid5195" />
    <sodipodi:guide
       orientation="0,1"
       position="63.59375,194"
       id="guide5218" />
    <sodipodi:guide
       orientation="1,0"
       position="128,257"
       id="guide5220" />
    <sodipodi:guide
       orientation="0,1"
       position="66.273437,276"
       id="guide5222" />
    <sodipodi:guide
       orientation="0,1"
       position="163,75"
       id="guide5338" />
    <sodipodi:guide
       orientation="0,1"
       position="154.50283,89"
       id="guide5340" />
    <sodipodi:guide
       orientation="1,0"
       position="92,33.53125"
       id="guide5342" />
    <sodipodi:guide
       orientation="0,1"
       position="101,27"
       id="guide5344" />
  </sodipodi:namedview>
  <g
     id="g5389">
    <path
       sodipodi:nodetypes="cccccc"
       inkscape:connector-curvature="0"
       id="path5387"
       d="m 80,31 48,-15 42,15 0,205 -90,0 z"
       style="fill:#ffffff;stroke:none;stroke-width:1px;stroke-linecap:butt;stroke-linejoin:miter;stroke-opacity:1;fill-opacity:0.33000001" />
    <path
       id="path5193"
       d="M 128.0625 -0.25 C 97.043494 -0.2507025 66 20.5 66 62 L 66 92 L 50 92 C 32.055836 92 21 104.34756 21 122 L 21 226 C 21 244.0801 32.940757 255.94229 51 256 L 205 256.5 C 222.97794 256.5574 235 244.01765 235 226 L 235 122 C 235 104.06045 222.93484 91.416777 205 92 L 190 92 L 190.03125 62 C 190.07538 20.50281 159.08151 -0.2492975 128.0625 -0.25 z M 128 25 C 149.05959 25 164 40.484192 164 60 C 164 80.466775 156 100 128 110 C 133 102 135 99 136 91 C 107 94 92 78.800455 92 60 C 92 41.199545 106.94041 25 128 25 z M 128 121 C 142.8581 121 155 132.86569 155 148 C 155 163.13431 144.00444 170.98483 137.5625 173.25 C 137.5625 173.25 163 181 163 208 L 163 219 C 163 225 159 229 153 229 L 102 229 C 96 229 92 225 92 219 L 92 208 C 92 181 118.375 173.28125 118.375 173.28125 C 112.98809 172.01274 101 163 101 148 C 101 133 113.1419 121 128 121 z "
       style="fill:#252325;stroke:none;fill-opacity:1" />
  </g>
</svg>
